# This file uses centimeters as units for non-parametric coordinates.

mtllib 180Turn.mtl
g default
v 95.932039 10.520848 69.222743
v 95.280546 10.520848 65.109455
v 93.389887 10.520848 61.398800
v 90.445082 10.520848 58.454007
v 86.734424 10.520848 56.563340
v 82.621136 10.520848 55.911859
v 82.621136 10.520848 82.533646
v 86.734424 10.520848 81.882153
v 90.445082 10.520848 79.991478
v 93.389887 10.520848 77.046689
v 95.280546 10.520848 73.336031
v 95.932039 11.520848 69.222743
v 95.280546 11.520848 65.109455
v 93.389887 11.520848 61.398800
v 90.445082 11.520848 58.454007
v 86.734424 11.520848 56.563340
v 82.621136 11.520848 55.911859
v 82.621136 11.520848 82.533646
v 86.734424 11.520848 81.882153
v 90.445082 11.520848 79.991478
v 93.389887 11.520848 77.046689
v 95.280546 11.520848 73.336031
v 115.898366 11.520848 69.222743
v 114.269670 11.520848 58.939518
v 109.542979 11.520848 49.662881
v 102.181001 11.520848 42.300899
v 92.904364 11.520848 37.574221
v 82.621136 11.520848 35.945516
v 82.621136 11.520848 102.499989
v 92.904372 11.520848 100.871292
v 102.181017 11.520848 96.144602
v 109.542995 11.520848 88.782624
v 114.269685 11.520848 79.505979
v 115.898366 10.520848 69.222743
v 114.269670 10.520848 58.939518
v 109.542979 10.520848 49.662881
v 102.181001 10.520848 42.300899
v 92.904364 10.520848 37.574221
v 82.621136 10.520848 35.945516
v 82.621136 10.520848 102.499989
v 92.904372 10.520848 100.871292
v 102.181017 10.520848 96.144602
v 109.542995 10.520848 88.782624
v 114.269685 10.520848 79.505979
vt 0.000000 1.000000
vt 0.050000 1.000000
vt 0.100000 1.000000
vt 0.150000 1.000000
vt 0.200000 1.000000
vt 0.250000 0.500000
vt 0.750000 0.500000
vt 0.800000 1.000000
vt 0.850000 1.000000
vt 0.900000 1.000000
vt 0.950000 1.000000
vt 1.000000 1.000000
vt 0.000000 0.750000
vt 0.050000 0.750000
vt 0.100000 0.750000
vt 0.150000 0.750000
vt 0.200000 0.750000
vt 0.250000 0.750000
vt 0.750000 0.750000
vt 0.800000 0.750000
vt 0.850000 0.750000
vt 0.900000 0.750000
vt 0.950000 0.750000
vt 1.000000 0.750000
vt 0.000000 0.500000
vt 0.050000 0.500000
vt 0.100000 0.500000
vt 0.150000 0.500000
vt 0.200000 0.500000
vt 0.250000 0.500000
vt 0.750000 0.500000
vt 0.800000 0.500000
vt 0.850000 0.500000
vt 0.900000 0.500000
vt 0.950000 0.500000
vt 1.000000 0.500000
vt 0.000000 0.250000
vt 0.050000 0.250000
vt 0.100000 0.250000
vt 0.150000 0.250000
vt 0.200000 0.250000
vt 0.250000 0.250000
vt 0.750000 0.250000
vt 0.800000 0.250000
vt 0.850000 0.250000
vt 0.900000 0.250000
vt 0.950000 0.250000
vt 1.000000 0.250000
vt 0.000000 0.000000
vt 0.050000 0.000000
vt 0.100000 0.000000
vt 0.150000 0.000000
vt 0.200000 0.000000
vt 0.800000 0.000000
vt 0.850000 0.000000
vt 0.900000 0.000000
vt 0.950000 0.000000
vt 1.000000 0.000000
vn -0.951057 0.000000 0.309017
vn -1.000000 0.000000 0.000000
vn -1.000000 0.000000 0.000000
vn -0.951057 0.000000 0.309017
vn -0.809017 0.000000 0.587785
vn -0.809017 0.000000 0.587785
vn -0.587784 0.000000 0.809018
vn -0.587784 0.000000 0.809018
vn -0.309016 0.000000 0.951057
vn -0.309016 0.000000 0.951057
vn -0.156435 0.000000 0.987688
vn -0.156435 0.000000 0.987688
vn -0.309018 0.000000 -0.951056
vn -0.156437 0.000000 -0.987688
vn -0.156437 0.000000 -0.987688
vn -0.309018 0.000000 -0.951056
vn -0.587784 0.000000 -0.809018
vn -0.587784 0.000000 -0.809018
vn -0.809017 0.000000 -0.587785
vn -0.809017 0.000000 -0.587785
vn -0.951057 0.000000 -0.309017
vn -0.951057 0.000000 -0.309017
vn 0.000000 1.000000 0.000000
vn 0.000000 1.000000 0.000000
vn 0.000000 1.000000 0.000000
vn 0.000000 1.000000 0.000000
vn 0.000000 1.000000 0.000000
vn 0.000000 1.000000 0.000000
vn 0.000000 1.000000 0.000000
vn 0.000000 1.000000 0.000000
vn 0.000000 1.000000 0.000000
vn 0.000000 1.000000 0.000000
vn 0.000000 1.000000 0.000000
vn 0.000000 1.000000 0.000000
vn 0.000000 1.000000 0.000000
vn 0.000000 1.000000 0.000000
vn 0.000000 1.000000 0.000000
vn 0.000000 1.000000 0.000000
vn 0.000000 1.000000 0.000000
vn 0.000000 1.000000 0.000000
vn 0.000000 1.000000 0.000000
vn 0.000000 1.000000 0.000000
vn 0.000000 1.000000 0.000000
vn 0.000000 1.000000 0.000000
vn 0.951056 0.000000 -0.309017
vn 1.000000 0.000000 -0.000001
vn 1.000000 0.000000 -0.000001
vn 0.951056 0.000000 -0.309017
vn 0.809017 0.000000 -0.587785
vn 0.809017 0.000000 -0.587785
vn 0.587785 0.000000 -0.809017
vn 0.587785 0.000000 -0.809017
vn 0.309017 0.000000 -0.951057
vn 0.309017 0.000000 -0.951057
vn 0.156435 0.000000 -0.987688
vn 0.156435 0.000000 -0.987688
vn 0.309017 0.000000 0.951057
vn 0.156434 0.000000 0.987688
vn 0.156434 0.000000 0.987688
vn 0.309017 0.000000 0.951057
vn 0.587785 0.000000 0.809017
vn 0.587785 0.000000 0.809017
vn 0.809017 0.000000 0.587785
vn 0.809017 0.000000 0.587785
vn 0.951057 0.000000 0.309016
vn 0.951057 0.000000 0.309016
vn 0.000000 -1.000000 0.000000
vn 0.000000 -1.000000 0.000000
vn 0.000000 -1.000000 0.000000
vn 0.000000 -1.000000 0.000000
vn 0.000000 -1.000000 0.000000
vn 0.000000 -1.000000 0.000000
vn 0.000000 -1.000000 0.000000
vn 0.000000 -1.000000 0.000000
vn 0.000000 -1.000000 0.000000
vn 0.000000 -1.000000 0.000000
vn 0.000000 -1.000000 0.000000
vn 0.000000 -1.000000 0.000000
vn 0.000000 -1.000000 0.000000
vn 0.000000 -1.000000 0.000000
vn 0.000000 -1.000000 0.000000
vn 0.000000 -1.000000 0.000000
vn 0.000000 -1.000000 0.000000
vn 0.000000 -1.000000 0.000000
vn 0.000000 -1.000000 0.000000
vn 0.000000 -1.000000 0.000000
vn 0.000000 -1.000000 0.000000
vn 0.000000 -1.000000 0.000000
vn -1.000000 0.000000 0.000000
vn -1.000000 0.000000 0.000000
vn -1.000000 0.000000 0.000000
vn -1.000000 0.000000 0.000000
vn -1.000000 0.000000 0.000000
vn -1.000000 0.000000 0.000000
vn -1.000000 0.000000 0.000000
vn -1.000000 0.000000 0.000000
s 1
g Road_180 group3
usemtl initialShadingGroup
f 2/2/1 1/1/2 12/13/3 13/14/4
f 3/3/5 2/2/1 13/14/4 14/15/6
f 4/4/7 3/3/5 14/15/6 15/16/8
f 5/5/9 4/4/7 15/16/8 16/17/10
f 6/6/11 5/5/9 16/17/10 17/18/12
f 8/8/13 7/7/14 18/19/15 19/20/16
f 9/9/17 8/8/13 19/20/16 20/21/18
f 10/10/19 9/9/17 20/21/18 21/22/20
f 11/11/21 10/10/19 21/22/20 22/23/22
f 1/12/2 11/11/21 22/23/22 12/24/3
s 3
f 13/14/23 12/13/24 23/25/25 24/26/26
f 14/15/27 13/14/23 24/26/26 25/27/28
f 15/16/29 14/15/27 25/27/28 26/28/30
f 16/17/31 15/16/29 26/28/30 27/29/32
f 17/18/33 16/17/31 27/29/32 28/30/34
f 19/20/35 18/19/36 29/31/37 30/32/38
f 20/21/39 19/20/35 30/32/38 31/33/40
f 21/22/41 20/21/39 31/33/40 32/34/42
f 22/23/43 21/22/41 32/34/42 33/35/44
f 12/24/24 22/23/43 33/35/44 23/36/25
s 5
f 24/26/45 23/25/46 34/37/47 35/38/48
f 25/27/49 24/26/45 35/38/48 36/39/50
f 26/28/51 25/27/49 36/39/50 37/40/52
f 27/29/53 26/28/51 37/40/52 38/41/54
f 28/30/55 27/29/53 38/41/54 39/42/56
f 30/32/57 29/31/58 40/43/59 41/44/60
f 31/33/61 30/32/57 41/44/60 42/45/62
f 32/34/63 31/33/61 42/45/62 43/46/64
f 33/35/65 32/34/63 43/46/64 44/47/66
f 23/36/46 33/35/65 44/47/66 34/48/47
s 7
f 35/38/67 34/37/68 1/49/69 2/50/70
f 36/39/71 35/38/67 2/50/70 3/51/72
f 37/40/73 36/39/71 3/51/72 4/52/74
f 38/41/75 37/40/73 4/52/74 5/53/76
f 39/42/77 38/41/75 5/53/76 6/6/78
f 41/44/79 40/43/80 7/7/81 8/54/82
f 42/45/83 41/44/79 8/54/82 9/55/84
f 43/46/85 42/45/83 9/55/84 10/56/86
f 44/47/87 43/46/85 10/56/86 11/57/88
f 34/48/68 44/47/87 11/57/88 1/58/69
s off
f 17/18/89 28/30/90 39/42/91 6/6/92
f 29/31/93 18/19/94 7/7/95 40/43/96
g default
v 113.440691 10.676110 69.222730
v 111.830817 10.676110 59.878626
v 107.158899 10.676110 51.449177
v 99.882139 10.676110 44.759535
v 90.712918 10.676110 40.464528
v 82.614598 10.676110 38.984566
v 82.614598 10.676110 99.460939
v 90.712918 10.676110 97.980941
v 99.882139 10.676110 93.685923
v 107.158899 10.676110 86.996284
v 111.830817 10.676110 78.566833
v 113.440691 12.630106 69.222730
v 111.830817 12.630106 59.878626
v 107.158899 12.630106 51.449177
v 99.882139 12.630106 44.759535
v 90.712918 12.630106 40.464528
v 82.614598 12.630106 38.984566
v 82.614598 12.630106 99.460939
v 90.712918 12.630106 97.980941
v 99.882139 12.630106 93.685923
v 107.158899 12.630106 86.996284
v 111.830817 12.630106 78.566833
v 115.898366 12.630106 69.222743
v 114.269670 12.630106 58.939518
v 109.542979 12.630106 49.662881
v 102.181001 12.630106 42.300899
v 92.904364 12.630106 37.574221
v 82.621136 12.630106 35.945516
v 82.621136 12.630106 102.499989
v 92.904372 12.630106 100.871292
v 102.181017 12.630106 96.144602
v 109.542995 12.630106 88.782624
v 114.269685 12.630106 79.505979
v 115.898366 10.676110 69.222743
v 114.269670 10.676110 58.939518
v 109.542979 10.676110 49.662881
v 102.181001 10.676110 42.300899
v 92.904364 10.676110 37.574221
v 82.621136 10.676110 35.945516
v 82.621136 10.676110 102.499989
v 92.904372 10.676110 100.871292
v 102.181017 10.676110 96.144602
v 109.542995 10.676110 88.782624
v 114.269685 10.676110 79.505979
vt 0.000000 1.000000
vt 0.050000 1.000000
vt 0.100000 1.000000
vt 0.150000 1.000000
vt 0.200000 1.000000
vt 0.250000 0.500000
vt 0.750000 0.500000
vt 0.800000 1.000000
vt 0.850000 1.000000
vt 0.900000 1.000000
vt 0.950000 1.000000
vt 1.000000 1.000000
vt 0.000000 0.750000
vt 0.050000 0.750000
vt 0.100000 0.750000
vt 0.150000 0.750000
vt 0.200000 0.750000
vt 0.250000 0.750000
vt 0.750000 0.750000
vt 0.800000 0.750000
vt 0.850000 0.750000
vt 0.900000 0.750000
vt 0.950000 0.750000
vt 1.000000 0.750000
vt 0.000000 0.500000
vt 0.050000 0.500000
vt 0.100000 0.500000
vt 0.150000 0.500000
vt 0.200000 0.500000
vt 0.250000 0.500000
vt 0.750000 0.500000
vt 0.800000 0.500000
vt 0.850000 0.500000
vt 0.900000 0.500000
vt 0.950000 0.500000
vt 1.000000 0.500000
vt 0.000000 0.250000
vt 0.050000 0.250000
vt 0.100000 0.250000
vt 0.150000 0.250000
vt 0.200000 0.250000
vt 0.250000 0.250000
vt 0.750000 0.250000
vt 0.800000 0.250000
vt 0.850000 0.250000
vt 0.900000 0.250000
vt 0.950000 0.250000
vt 1.000000 0.250000
vt 0.000000 0.000000
vt 0.050000 0.000000
vt 0.100000 0.000000
vt 0.150000 0.000000
vt 0.200000 0.000000
vt 0.800000 0.000000
vt 0.850000 0.000000
vt 0.900000 0.000000
vt 0.950000 0.000000
vt 1.000000 0.000000
vn -0.942844 0.000000 0.333234
vn -1.000000 0.000000 -0.000000
vn -1.000000 0.000000 -0.000000
vn -0.942844 0.000000 0.333234
vn -0.784566 0.000000 0.620046
vn -0.784566 0.000000 0.620046
vn -0.555423 0.000000 0.831568
vn -0.555423 0.000000 0.831568
vn -0.317173 0.000000 0.948368
vn -0.317173 0.000000 0.948368
vn -0.179772 0.000000 0.983708
vn -0.179772 0.000000 0.983708
vn -0.317175 0.000000 -0.948367
vn -0.179776 0.000000 -0.983708
vn -0.179776 0.000000 -0.983708
vn -0.317175 0.000000 -0.948367
vn -0.555423 0.000000 -0.831568
vn -0.555423 0.000000 -0.831568
vn -0.784566 0.000000 -0.620046
vn -0.784566 0.000000 -0.620046
vn -0.942844 0.000000 -0.333234
vn -0.942844 0.000000 -0.333234
vn 0.000000 1.000000 0.000000
vn 0.000000 1.000000 0.000000
vn 0.000000 1.000000 0.000000
vn 0.000000 1.000000 0.000000
vn 0.000000 1.000000 0.000000
vn 0.000000 1.000000 0.000000
vn 0.000000 1.000000 0.000000
vn 0.000000 1.000000 0.000000
vn 0.000000 1.000000 -0.000000
vn 0.000000 1.000000 -0.000000
vn 0.000000 1.000000 -0.000000
vn 0.000000 1.000000 -0.000000
vn 0.000000 1.000000 0.000000
vn 0.000000 1.000000 0.000000
vn 0.000000 1.000000 0.000000
vn 0.000000 1.000000 0.000000
vn 0.000000 1.000000 0.000000
vn 0.000000 1.000000 0.000000
vn 0.000000 1.000000 0.000000
vn 0.000000 1.000000 0.000000
vn 0.000000 1.000000 0.000000
vn 0.000000 1.000000 0.000000
vn 0.951056 0.000000 -0.309017
vn 1.000000 0.000000 -0.000001
vn 1.000000 0.000000 -0.000001
vn 0.951056 0.000000 -0.309017
vn 0.809017 0.000000 -0.587785
vn 0.809017 0.000000 -0.587785
vn 0.587785 0.000000 -0.809017
vn 0.587785 0.000000 -0.809017
vn 0.309017 0.000000 -0.951057
vn 0.309017 0.000000 -0.951057
vn 0.156435 0.000000 -0.987688
vn 0.156435 0.000000 -0.987688
vn 0.309017 0.000000 0.951057
vn 0.156434 0.000000 0.987688
vn 0.156434 0.000000 0.987688
vn 0.309017 0.000000 0.951057
vn 0.587785 0.000000 0.809017
vn 0.587785 0.000000 0.809017
vn 0.809017 0.000000 0.587785
vn 0.809017 0.000000 0.587785
vn 0.951057 0.000000 0.309016
vn 0.951057 0.000000 0.309016
vn 0.000000 -1.000000 0.000000
vn 0.000000 -1.000000 0.000000
vn 0.000000 -1.000000 0.000000
vn 0.000000 -1.000000 0.000000
vn 0.000000 -1.000000 0.000000
vn 0.000000 -1.000000 0.000000
vn 0.000000 -1.000000 0.000000
vn 0.000000 -1.000000 0.000000
vn 0.000000 -1.000000 -0.000000
vn 0.000000 -1.000000 -0.000000
vn 0.000000 -1.000000 -0.000000
vn 0.000000 -1.000000 -0.000000
vn 0.000000 -1.000000 0.000000
vn 0.000000 -1.000000 0.000000
vn 0.000000 -1.000000 0.000000
vn 0.000000 -1.000000 0.000000
vn 0.000000 -1.000000 0.000000
vn 0.000000 -1.000000 0.000000
vn 0.000000 -1.000000 0.000000
vn 0.000000 -1.000000 0.000000
vn 0.000000 -1.000000 0.000000
vn 0.000000 -1.000000 0.000000
vn -0.999998 0.000000 -0.002151
vn -0.999998 0.000000 -0.002151
vn -0.999998 0.000000 -0.002151
vn -0.999998 0.000000 -0.002151
vn -0.999998 0.000000 0.002151
vn -0.999998 0.000000 0.002151
vn -0.999998 0.000000 0.002151
vn -0.999998 0.000000 0.002151
s 1
g group3 Road_18oRail
usemtl initialShadingGroup
f 46/60/97 45/59/98 56/71/99 57/72/100
f 47/61/101 46/60/97 57/72/100 58/73/102
f 48/62/103 47/61/101 58/73/102 59/74/104
f 49/63/105 48/62/103 59/74/104 60/75/106
f 50/64/107 49/63/105 60/75/106 61/76/108
f 52/66/109 51/65/110 62/77/111 63/78/112
f 53/67/113 52/66/109 63/78/112 64/79/114
f 54/68/115 53/67/113 64/79/114 65/80/116
f 55/69/117 54/68/115 65/80/116 66/81/118
f 45/70/98 55/69/117 66/81/118 56/82/99
s 3
f 57/72/119 56/71/120 67/83/121 68/84/122
f 58/73/123 57/72/119 68/84/122 69/85/124
f 59/74/125 58/73/123 69/85/124 70/86/126
f 60/75/127 59/74/125 70/86/126 71/87/128
f 61/76/129 60/75/127 71/87/128 72/88/130
f 63/78/131 62/77/132 73/89/133 74/90/134
f 64/79/135 63/78/131 74/90/134 75/91/136
f 65/80/137 64/79/135 75/91/136 76/92/138
f 66/81/139 65/80/137 76/92/138 77/93/140
f 56/82/120 66/81/139 77/93/140 67/94/121
s 5
f 68/84/141 67/83/142 78/95/143 79/96/144
f 69/85/145 68/84/141 79/96/144 80/97/146
f 70/86/147 69/85/145 80/97/146 81/98/148
f 71/87/149 70/86/147 81/98/148 82/99/150
f 72/88/151 71/87/149 82/99/150 83/100/152
f 74/90/153 73/89/154 84/101/155 85/102/156
f 75/91/157 74/90/153 85/102/156 86/103/158
f 76/92/159 75/91/157 86/103/158 87/104/160
f 77/93/161 76/92/159 87/104/160 88/105/162
f 67/94/142 77/93/161 88/105/162 78/106/143
s 7
f 79/96/163 78/95/164 45/107/165 46/108/166
f 80/97/167 79/96/163 46/108/166 47/109/168
f 81/98/169 80/97/167 47/109/168 48/110/170
f 82/99/171 81/98/169 48/110/170 49/111/172
f 83/100/173 82/99/171 49/111/172 50/64/174
f 85/102/175 84/101/176 51/65/177 52/112/178
f 86/103/179 85/102/175 52/112/178 53/113/180
f 87/104/181 86/103/179 53/113/180 54/114/182
f 88/105/183 87/104/181 54/114/182 55/115/184
f 78/106/164 88/105/183 55/115/184 45/116/165
s off
f 61/76/185 72/88/186 83/100/187 50/64/188
f 73/89/189 62/77/190 51/65/191 84/101/192
